<svg width="33" height="33" viewBox="0 0 33 33" fill="none" xmlns="http://www.w3.org/2000/svg">
<path d="M16.2129 8.44482C15.224 8.44482 14.2573 8.73807 13.435 9.28748C12.6128 9.83688 11.9719 10.6178 11.5935 11.5314C11.2151 12.445 11.116 13.4504 11.309 14.4203C11.5019 15.3902 11.9781 16.2811 12.6774 16.9804C13.3766 17.6796 14.2675 18.1558 15.2374 18.3488C16.2073 18.5417 17.2127 18.4427 18.1263 18.0642C19.0399 17.6858 19.8208 17.0449 20.3702 16.2227C20.9196 15.4004 21.2129 14.4337 21.2129 13.4448C21.2129 12.1187 20.6861 10.847 19.7484 9.90929C18.8107 8.97161 17.539 8.44482 16.2129 8.44482ZM16.2129 16.4448C15.6195 16.4448 15.0395 16.2689 14.5462 15.9392C14.0528 15.6096 13.6683 15.1411 13.4413 14.5929C13.2142 14.0447 13.1548 13.4415 13.2705 12.8596C13.3863 12.2776 13.672 11.7431 14.0916 11.3235C14.5111 10.9039 15.0457 10.6182 15.6276 10.5025C16.2096 10.3867 16.8128 10.4461 17.3609 10.6732C17.9091 10.9002 18.3777 11.2848 18.7073 11.7781C19.0369 12.2715 19.2129 12.8515 19.2129 13.4448C19.2129 14.2405 18.8968 15.0035 18.3342 15.5661C17.7716 16.1288 17.0085 16.4448 16.2129 16.4448ZM16.2129 2.44482C13.2965 2.44813 10.5006 3.60812 8.43837 5.6703C6.37619 7.73249 5.2162 10.5285 5.21289 13.4448C5.21289 17.3698 7.02664 21.5298 10.4629 25.4761C12.0069 27.2593 13.7447 28.865 15.6441 30.2636C15.8123 30.3814 16.0126 30.4445 16.2179 30.4445C16.4232 30.4445 16.6235 30.3814 16.7916 30.2636C18.6876 28.8644 20.422 27.2587 21.9629 25.4761C25.3941 21.5298 27.2129 17.3698 27.2129 13.4448C27.2096 10.5285 26.0496 7.73249 23.9874 5.6703C21.9252 3.60812 19.1293 2.44813 16.2129 2.44482ZM16.2129 28.1948C14.1466 26.5698 7.21289 20.6011 7.21289 13.4448C7.21289 11.0579 8.1611 8.76869 9.84893 7.08086C11.5368 5.39304 13.8259 4.44482 16.2129 4.44482C18.5998 4.44482 20.889 5.39304 22.5769 7.08086C24.2647 8.76869 25.2129 11.0579 25.2129 13.4448C25.2129 20.5986 18.2791 26.5698 16.2129 28.1948Z" fill="#353535"/>
</svg>
